#!OML:ASF C:\ViconDB\ViconDB\414\Spring2016\041811\Spring2016.ASF
:FULLY-SPECIFIED
:DEGREES
243
root 10.8217 16.8884 5.88079 -174.764 -12.1999 -186.478
lowerback -1.8116 -2.3057 0.0884847
upperback 0.0838863 -3.10518 1.31111
thorax 1.16823 -1.56113 1.20465
lowerneck -13.4696 0.605919 -7.95963
upperneck 24.8873 0.163657 5.94183
head 10.0979 -0.409025 3.40649
rclavicle -1.27222e-014 2.38542e-014
rhumerus -82.3074 24.7671 -109.399
rradius 93.4763
rwrist 39.0773
rhand -45.2121 2.18813
rfingers 7.12502
rthumb -17.9878 -27.0001
lclavicle -1.27222e-014 2.38542e-014
lhumerus -86.002 -40.1171 117.805
lradius 75.5842
lwrist -34.8677
lhand -48.5136 -0.411554
lfingers 7.12502
lthumb -21.1619 28.4535
rfemur 194.173 30.6089 -164.008
rtibia 33.0743
rfoot -19.6243 -64.1025
rtoes -4.45278e-014
lfemur 17.9954 -7.33739 -25.9032
ltibia 13.9095
lfoot -24.0463 -10.2838
ltoes 6.67916e-014
244
root 10.8557 16.8769 5.69486 -175.012 -12.3345 -186.134
lowerback -1.62925 -2.40112 0.683763
upperback 0.0643391 -3.2427 1.253
thorax 1.01268 -1.62675 0.818916
lowerneck -13.584 0.715872 -7.49214
upperneck 24.9856 0.275869 5.67911
head 10.1496 -0.345511 3.24931
rclavicle 1.3418e-014 -1.59028e-015
rhumerus -82.0326 24.6154 -109.463
rradius 93.5486
rwrist 39.257
rhand -44.7476 2.56592
rfingers 7.12502
rthumb -17.5408 -26.6628
lclavicle 1.3418e-014 -1.59028e-015
lhumerus -86.0401 -40.0277 117.783
lradius 75.0861
lwrist -34.8995
lhand -48.5329 -0.623761
lfingers 7.12502
lthumb -21.1804 28.2392
rfemur 192.405 29.9353 -164.308
rtibia 34.1794
rfoot -18.1573 -64.7702
rtoes 7.71285e-014
lfemur 18.4541 -7.50217 -25.3614
ltibia 14.5017
lfoot -23.3233 -10.2547
ltoes -3.97569e-014
245
root 10.8955 16.8747 5.4987 -175.213 -12.5266 -185.922
lowerback -1.68995 -2.53763 0.728966
upperback 0.133052 -3.4345 1.43647
thorax 1.12769 -1.72476 0.971227
lowerneck -13.7292 0.818004 -7.43835
upperneck 25.0611 0.433914 5.6297
head 10.1932 -0.27217 3.24533
rclavicle 1.25234e-014 2.38542e-014
rhumerus -81.7355 24.7955 -109.235
rradius 93.5842
rwrist 39.032
rhand -44.857 2.69589
rfingers 7.12502
rthumb -17.646 -26.5234
lclavicle 1.25234e-014 2.38542e-014
lhumerus -85.8518 -39.8078 117.985
lradius 74.6001
lwrist -34.8113
lhand -48.8856 -0.295531
lfingers 7.12502
lthumb -21.5192 28.5291
rfemur 190.751 29.511 -164.652
rtibia 35.2378
rfoot -19.1526 -65.2651
rtoes -8.74653e-015
lfemur 18.8767 -7.67123 -24.896
ltibia 15.0666
lfoot -22.3066 -10.3219
ltoes -7.63333e-014
246
root 10.9304 16.8833 5.2977 -175.438 -12.7195 -185.592
lowerback -1.76295 -2.6773 1.07665
upperback 0.164991 -3.63565 1.53133
thorax 1.18852 -1.8251 0.86472
lowerneck -13.75 0.922657 -7.30158
upperneck 25.0583 0.570708 5.56219
head 10.1867 -0.203228 3.21465
rclavicle 7.91163e-014 -1.27222e-014
rhumerus -81.6627 24.9421 -109.248
rradius 93.7755
rwrist 38.5802
rhand -44.4082 2.81173
rfingers 7.12502
rthumb -17.2141 -26.4458
lclavicle 7.91163e-014 -1.27222e-014
lhumerus -85.9409 -39.5954 118.212
lradius 74.3738
lwrist -34.5205
lhand -49.0186 -0.255737
lfingers 7.12502
lthumb -21.6469 28.5542
rfemur 189.252 29.4821 -164.534
rtibia 36.1556
rfoot -20.0343 -66.0902
rtoes -3.18055e-015
lfemur 19.2 -7.78399 -24.2718
ltibia 15.7745
lfoot -20.9511 -10.28
ltoes -2.8466e-013
247
root 10.9664 16.9159 5.09452 -175.76 -12.8873 -185.253
lowerback -1.69936 -2.76859 1.37076
upperback 0.178617 -3.76928 1.64658
thorax 1.157 -1.89275 0.818479
lowerneck -13.682 1.01432 -7.17079
upperneck 25.0985 0.682844 5.44917
head 10.1811 -0.157647 3.16488
rclavicle 5.51627e-014 -7.95139e-015
rhumerus -81.6486 24.9982 -109.181
rradius 93.9765
rwrist 38.256
rhand -44.4278 2.73974
rfingers 7.12502
rthumb -17.233 -26.5161
lclavicle 5.51627e-014 -7.95139e-015
lhumerus -86.0762 -39.4011 118.436
lradius 74.1129
lwrist -34.756
lhand -49.3277 0.33131
lfingers 7.12502
lthumb -21.9437 29.1067
rfemur 187.67 29.3739 -164.539
rtibia 36.8883
rfoot -21.5569 -66.3246
rtoes 5.64548e-014
lfemur 19.3251 -7.77869 -23.5997
ltibia 16.8637
lfoot -19.3492 -10.3274
ltoes -1.24042e-013
248
root 11.008 16.9606 4.88485 -176.099 -13.0504 -184.876
lowerback -1.69165 -2.89236 1.70799
upperback 0.203967 -3.94636 1.6976
thorax 1.16068 -1.98078 0.678633
lowerneck -13.6544 1.14911 -6.95834
upperneck 25.2643 0.804428 5.3976
head 10.2278 -0.100187 3.12698
rclavicle -2.83268e-014 5.725e-014
rhumerus -81.6624 25.0363 -109.325
rradius 94.09
rwrist 37.982
rhand -44.2378 2.67945
rfingers 7.12502
rthumb -17.0501 -26.5923
lclavicle -2.83268e-014 5.725e-014
lhumerus -86.1809 -39.2436 118.435
lradius 73.9216
lwrist -34.6959
lhand -49.6671 -0.0264281
lfingers 7.12502
lthumb -22.2695 28.7104
rfemur 186.065 29.0426 -164.636
rtibia 37.4646
rfoot -21.8145 -65.975
rtoes -4.69132e-014
lfemur 19.0873 -7.6542 -22.7464
ltibia 18.526
lfoot -17.5311 -10.7645
ltoes 2.63986e-013
249
root 11.0527 17.0123 4.68065 -176.383 -13.1723 -184.359
lowerback -1.73 -2.96013 2.03267
upperback 0.231922 -4.05722 1.88102
thorax 1.20208 -2.03815 0.679966
lowerneck -13.6985 1.23804 -6.93122
upperneck 25.4437 0.895502 5.42741
head 10.2941 -0.0626964 3.14794
rclavicle 2.5842e-014 -3.81667e-014
rhumerus -81.5346 25.1654 -109.14
rradius 94.242
rwrist 37.9102
rhand -43.7413 2.79735
rfingers 7.12502
rthumb -16.5722 -26.515
lclavicle 2.5842e-014 -3.81667e-014
lhumerus -86.1922 -39.112 118.629
lradius 73.7439
lwrist -34.9333
lhand -50.0628 0.48065
lfingers 7.12502
lthumb -22.6494 29.1716
rfemur 184.678 28.6717 -164.457
rtibia 37.9296
rfoot -21.7077 -65.5048
rtoes 6.91771e-014
lfemur 18.4254 -7.48275 -21.7235
ltibia 20.6311
lfoot -15.4242 -11.1175
ltoes -6.36111e-014
250
root 11.0996 17.0601 4.48133 -176.677 -13.2732 -183.952
lowerback -1.67029 -3.01595 2.28123
upperback 0.239544 -4.14372 2.00302
thorax 1.16811 -2.08334 0.668003
lowerneck -13.6119 1.30328 -6.85058
upperneck 25.5653 0.952884 5.36265
head 10.3182 -0.0482407 3.11818
rclavicle -7.56376e-014 -3.33958e-014
rhumerus -81.4164 25.2782 -109.009
rradius 94.3345
rwrist 37.9401
rhand -43.2085 2.69938
rfingers 7.12502
rthumb -16.0591 -26.6551
lclavicle -7.56376e-014 -3.33958e-014
lhumerus -86.3007 -39.1405 118.888
lradius 73.7014
lwrist -34.96
lhand -50.0872 0.615833
lfingers 7.12502
lthumb -22.6728 29.304
rfemur 183.363 28.6216 -164.18
rtibia 38.3408
rfoot -21.9345 -65.1265
rtoes 1.04958e-013
lfemur 17.3914 -6.9419 -20.6349
ltibia 23.2596
lfoot -12.9462 -11.5775
ltoes 2.38542e-013
251
root 11.1424 17.1135 4.27521 -176.766 -13.1972 -183.759
lowerback -1.79846 -2.99222 2.30401
upperback 0.164342 -4.117 2.03482
thorax 1.16362 -2.07087 0.683553
lowerneck -13.5936 1.40472 -6.78122
upperneck 25.9489 0.980737 5.48667
head 10.4503 -0.0419213 3.16042
rclavicle 1.0307e-013 -5.24792e-014
rhumerus -81.4201 25.3863 -109.052
rradius 94.3391
rwrist 37.6979
rhand -43.0231 2.61654
rfingers 7.12502
rthumb -15.8806 -26.7523
lclavicle 1.0307e-013 -5.24792e-014
lhumerus -86.4333 -39.2252 119.161
lradius 73.4772
lwrist -34.9677
lhand -50.3889 0.854952
lfingers 7.12502
lthumb -22.9623 29.5074
rfemur 182.319 28.8136 -163.921
rtibia 38.6908
rfoot -22.831 -64.6703
rtoes 1.55847e-013
lfemur 15.8981 -6.18167 -19.7788
ltibia 26.3517
lfoot -10.2329 -11.7924
ltoes -2.98972e-013
252
root 11.1925 17.1668 4.08611 -176.976 -13.3845 -183.368
lowerback -1.71185 -3.0396 2.56069
upperback 0.124104 -4.18561 2.08104
thorax 1.05898 -2.10653 0.593755
lowerneck -13.6036 1.41737 -6.76865
upperneck 26.264 0.880505 5.70235
head 10.5719 -0.0842806 3.2294
rclavicle 5.17337e-014 -3.81667e-014
rhumerus -81.3569 25.4822 -109.148
rradius 94.2467
rwrist 37.5596
rhand -42.7278 2.65326
rfingers 7.12502
rthumb -15.5962 -26.738
lclavicle 5.17337e-014 -3.81667e-014
lhumerus -86.3787 -39.4157 119.244
lradius 73.3084
lwrist -34.939
lhand -50.5903 0.777026
lfingers 7.12502
lthumb -23.1556 29.4053
rfemur 181.208 29.0218 -163.58
rtibia 38.9875
rfoot -23.0224 -64.0484
rtoes 2.70347e-014
lfemur 14.0163 -5.18058 -18.4948
ltibia 29.8163
lfoot -7.22054 -11.9487
ltoes 1.52667e-013
253
root 11.2399 17.2223 3.89687 -177.091 -13.4281 -182.908
lowerback -1.74003 -3.01418 2.78761
upperback 0.0570058 -4.16465 2.20581
thorax 0.999607 -2.09933 0.596827
lowerneck -13.632 1.44815 -6.74396
upperneck 26.6216 0.833518 5.79534
head 10.7115 -0.116987 3.26
rclavicle 2.07233e-014 2.06736e-014
rhumerus -81.3542 25.7619 -109.155
rradius 94.1789
rwrist 37.2108
rhand -42.4061 2.72532
rfingers 7.12502
rthumb -15.2863 -26.6898
lclavicle 2.07233e-014 2.06736e-014
lhumerus -86.2576 -39.6115 119.391
lradius 73.2076
lwrist -35.0847
lhand -50.8218 0.78594
lfingers 7.12502
lthumb -23.3777 29.3862
rfemur 180.35 29.484 -162.912
rtibia 39.2428
rfoot -23.8317 -63.5618
rtoes 5.80451e-014
lfemur 11.8532 -4.31539 -17.2608
ltibia 33.5397
lfoot -4.05336 -11.5699
ltoes -2.70347e-013
254
root 11.2905 17.2742 3.71398 -177.117 -13.4112 -182.559
lowerback -1.79801 -2.97922 2.81872
upperback -0.00158593 -4.12623 2.31393
thorax 0.978251 -2.08321 0.689441
lowerneck -13.6865 1.42198 -6.80777
upperneck 26.8934 0.702361 6.02724
head 10.8296 -0.17432 3.34512
rclavicle 2.50966e-014 -6.36111e-015
rhumerus -81.4343 26.1149 -109.27
rradius 93.9659
rwrist 37.2525
rhand -42.2306 2.57309
rfingers 7.12502
rthumb -15.1173 -26.8548
lclavicle 2.50966e-014 -6.36111e-015
lhumerus -86.0933 -39.8234 119.423
lradius 73.2072
lwrist -35.6267
lhand -50.8079 1.25263
lfingers 7.12502
lthumb -23.3643 29.8545
rfemur 179.691 30.1275 -162.224
rtibia 39.3907
rfoot -24.992 -63.1674
rtoes 3.18055e-015
lfemur 9.50743 -3.31727 -16.1414
ltibia 37.4834
lfoot -1.11085 -11.0906
ltoes -2.54444e-013
255
root 11.3334 17.3222 3.54213 -176.972 -13.4358 -182.589
lowerback -1.89716 -2.96739 2.63646
upperback -0.0697712 -4.10292 2.24731
thorax 0.971572 -2.07064 0.719296
lowerneck -13.6604 1.41344 -6.79321
upperneck 26.9801 0.629635 6.14553
head 10.8609 -0.200198 3.37772
rclavicle 2.01766e-014 -5.08889e-014
rhumerus -81.5284 26.5343 -109.532
rradius 93.7016
rwrist 37.139
rhand -42.264 2.35985
rfingers 7.12502
rthumb -15.1495 -27.0656
lclavicle 2.01766e-014 -5.08889e-014
lhumerus -85.7664 -40.0643 119.297
lradius 73.0998
lwrist -36.1055
lhand -51.0238 1.2748
lfingers 7.12502
lthumb -23.5714 29.8502
rfemur 179.267 31.3049 -161.754
rtibia 39.455
rfoot -26.7271 -62.7654
rtoes 3.33958e-014
lfemur 6.95779 -2.56886 -15.5791
ltibia 41.4578
lfoot 1.77487 -10.0691
ltoes 9.22361e-014
